<?xml version="1.0" encoding="UTF-8"?>
<svg version="1.1" xmlns="http://www.w3.org/2000/svg" width="500" height="500">
<path d="M0 0 C165 0 330 0 500 0 C500 165 500 330 500 500 C335 500 170 500 0 500 C0 335 0 170 0 0 Z " fill="#EFEFF0" transform="translate(0,0)"/>
<path d="M0 0 C1.20970459 0.04713135 2.41940918 0.0942627 3.66577148 0.14282227 C5.62353516 0.21533203 5.62353516 0.21533203 7.62084961 0.28930664 C9.00952598 0.34583683 10.39819781 0.40247892 11.78686523 0.45922852 C13.17942544 0.51243399 14.5720035 0.56517448 15.96459961 0.61743164 C19.38472504 0.74760943 22.80459448 0.88259032 26.22436523 1.02172852 C26.22214462 2.04681015 26.21992401 3.07189178 26.21763611 4.1280365 C26.19740482 13.76679812 26.18239316 23.40555546 26.17255306 33.04433346 C26.1673242 38.00026773 26.1602265 42.95618493 26.14892578 47.91210938 C26.13809701 52.69071687 26.13208842 57.4693079 26.12948799 62.24792671 C26.12763372 64.07526471 26.12401308 65.90260176 26.11863518 67.72993279 C26.11142488 70.2802618 26.11037429 72.83052188 26.11083984 75.38085938 C26.10724457 76.14402466 26.10364929 76.90718994 26.09994507 77.69348145 C25.79300283 81.14715016 25.79300283 81.14715016 27.22436523 84.02172852 C27.29680576 86.0413705 27.30813712 88.06339975 27.28686523 90.08422852 C27.2778418 91.18895508 27.26881836 92.29368164 27.25952148 93.43188477 C27.24211914 94.71385742 27.24211914 94.71385742 27.22436523 96.02172852 C28.83311523 95.99079102 28.83311523 95.99079102 30.47436523 95.95922852 C33.37226947 96.00752692 35.51048664 96.15328737 38.22436523 97.02172852 C38.22436523 97.68172852 38.22436523 98.34172852 38.22436523 99.02172852 C39.02874023 99.06297852 39.83311523 99.10422852 40.66186523 99.14672852 C49.86727065 101.40770529 56.38112588 108.34783373 61.54467773 115.97094727 C65.89551636 123.95762656 65.58533848 135.34075178 63.16186523 143.95922852 C59.70664445 152.44317438 53.3975566 158.90993614 45.31030273 162.98657227 C37.37658727 166.21057274 28.001465 166.5417148 19.87280273 163.95532227 C11.33971959 159.99121909 3.59753733 154.08712853 0.22436523 145.02172852 C0.22436523 144.03172852 0.22436523 143.04172852 0.22436523 142.02172852 C-0.76563477 142.02172852 -1.75563477 142.02172852 -2.77563477 142.02172852 C-2.77039795 142.65264404 -2.76516113 143.28355957 -2.75976562 143.93359375 C-2.7390565 146.77546199 -2.72599411 149.61731439 -2.71313477 152.45922852 C-2.70475586 153.45245117 -2.69637695 154.44567383 -2.68774414 155.46899414 C-2.68452148 156.41323242 -2.68129883 157.3574707 -2.67797852 158.33032227 C-2.6727417 159.20487061 -2.66750488 160.07941895 -2.66210938 160.98046875 C-2.77563477 163.02172852 -2.77563477 163.02172852 -3.77563477 164.02172852 C-6.76124005 164.16042037 -9.72192151 164.23499519 -12.70922852 164.26000977 C-13.61633072 164.26808151 -14.52343292 164.27615326 -15.45802307 164.2844696 C-17.3873604 164.29833664 -19.31672254 164.309047 -21.24609375 164.31689453 C-24.16984371 164.3339756 -27.09242368 164.37782076 -30.01586914 164.42211914 C-31.89281397 164.43225752 -33.76976841 164.44077003 -35.64672852 164.44750977 C-36.94265175 164.4737719 -36.94265175 164.4737719 -38.26475525 164.50056458 C-46.52411915 164.47169176 -53.74365868 162.34088282 -59.71313477 156.45922852 C-60.74378704 155.32221901 -61.76527528 154.17680792 -62.77563477 153.02172852 C-63.33379883 152.49708008 -63.89196289 151.97243164 -64.46704102 151.43188477 C-65.77563477 150.02172852 -65.77563477 150.02172852 -65.77563477 148.02172852 C-66.76563477 148.02172852 -67.75563477 148.02172852 -68.77563477 148.02172852 C-69.10563477 148.68172852 -69.43563477 149.34172852 -69.77563477 150.02172852 C-69.44563477 146.72172852 -69.11563477 143.42172852 -68.77563477 140.02172852 C-69.43563477 140.02172852 -70.09563477 140.02172852 -70.77563477 140.02172852 C-70.77563477 147.61172852 -70.77563477 155.20172852 -70.77563477 163.02172852 C-80.34563477 163.02172852 -89.91563477 163.02172852 -99.77563477 163.02172852 C-99.80069092 159.48268799 -99.82574707 155.94364746 -99.8515625 152.29736328 C-99.93485357 140.63448141 -100.02351222 128.97164381 -100.11497402 117.30882359 C-100.17032204 110.23421973 -100.22380657 103.15961084 -100.27294922 96.08496094 C-100.32033553 89.26390139 -100.37285522 82.44289706 -100.42857552 75.62190056 C-100.44903424 73.01307401 -100.46774135 70.40423314 -100.48470879 67.79538155 C-100.50867519 64.15536419 -100.53874001 60.51544645 -100.5703125 56.87548828 C-100.57894569 55.23982658 -100.57894569 55.23982658 -100.5877533 53.57112122 C-100.59754211 52.58529053 -100.60733093 51.59945984 -100.61741638 50.58375549 C-100.62386893 49.72187905 -100.63032148 48.86000261 -100.63696957 47.97200871 C-100.56192808 46.01704272 -100.56192808 46.01704272 -101.77563477 45.02172852 C-104.27563477 44.85506185 -104.27563477 44.85506185 -106.77563477 45.02172852 C-108.78066986 47.02676361 -108.0315214 51.02198295 -108.09204102 53.77563477 C-108.11282211 54.55108139 -108.13360321 55.32652802 -108.15501404 56.12547302 C-108.22059278 58.6116316 -108.27943276 61.09789897 -108.33813477 63.58422852 C-108.3813121 65.26588056 -108.42492612 66.94752145 -108.46899414 68.62915039 C-108.57710758 72.75989971 -108.67611808 76.89072719 -108.77563477 81.02172852 C-118.01563477 81.02172852 -127.25563477 81.02172852 -136.77563477 81.02172852 C-136.77563477 54.62172852 -136.77563477 28.22172852 -136.77563477 1.02172852 C-127.53563477 1.02172852 -118.29563477 1.02172852 -108.77563477 1.02172852 C-108.77563477 6.30172852 -108.77563477 11.58172852 -108.77563477 17.02172852 C-106.67188477 16.89797852 -106.67188477 16.89797852 -104.52563477 16.77172852 C-94.44764551 16.80027806 -86.3111818 20.57270222 -78.77563477 27.02172852 C-77.84750977 27.68172852 -76.91938477 28.34172852 -75.96313477 29.02172852 C-73.35463439 31.40664314 -72.16718534 33.79919033 -70.77563477 37.02172852 C-69.12737365 34.05485851 -68.33292389 31.36546327 -67.77563477 28.02172852 C-67.11563477 28.02172852 -66.45563477 28.02172852 -65.77563477 28.02172852 C-65.44563477 27.36172852 -65.11563477 26.70172852 -64.77563477 26.02172852 C-63.78563477 27.01172852 -63.78563477 27.01172852 -62.77563477 28.02172852 C-62.36313477 27.56282227 -61.95063477 27.10391602 -61.52563477 26.63110352 C-54.82338765 19.50996595 -48.06517601 16.02138184 -38.24194336 15.67871094 C-30.25690111 15.55659554 -24.53076454 16.36301833 -17.77563477 21.02172852 C-16.70313477 21.74360352 -15.63063477 22.46547852 -14.52563477 23.20922852 C-10.95748204 26.85847562 -5.77563477 32.64892432 -5.77563477 38.02172852 C-5.11563477 38.02172852 -4.45563477 38.02172852 -3.77563477 38.02172852 C-3.78087158 36.90612549 -3.7861084 35.79052246 -3.79150391 34.64111328 C-3.80955252 30.51693519 -3.82106625 26.39276061 -3.83056641 22.26855469 C-3.83560695 20.48078831 -3.84243931 18.69302607 -3.85107422 16.90527344 C-3.86315207 14.34121683 -3.86886571 11.77721454 -3.87329102 9.21313477 C-3.8784523 8.40896622 -3.88361359 7.60479767 -3.88893127 6.77626038 C-3.88912692 4.85771137 -3.83765459 2.93927483 -3.77563477 1.02172852 C-2.77563477 0.02172852 -2.77563477 0.02172852 0 0 Z " fill="#EDF0F1" transform="translate(293.775634765625,170.978271484375)"/>
<path d="M0 0 C9.24 0 18.48 0 28 0 C28.33 12.54 28.66 25.08 29 38 C32.96 30.74 36.92 23.48 41 16 C50.57 16 60.14 16 70 16 C68.49131255 19.77171862 66.95678752 23.04276885 64.99609375 26.5625 C64.42052734 27.60664063 63.84496094 28.65078125 63.25195312 29.7265625 C62.04139848 31.91051253 60.82785001 34.09280576 59.61132812 36.2734375 C59.03705078 37.31757813 58.46277344 38.36171875 57.87109375 39.4375 C57.34443115 40.38496094 56.81776855 41.33242187 56.27514648 42.30859375 C54.99081887 45.01937827 54.17465651 47.0044928 54 50 C55.0684799 52.58682861 55.0684799 52.58682861 56.82421875 55.08984375 C57.44103516 56.03923828 58.05785156 56.98863281 58.69335938 57.96679688 C59.68045898 59.43729492 59.68045898 59.43729492 60.6875 60.9375 C61.32623047 61.91396484 61.96496094 62.89042969 62.62304688 63.89648438 C64.83530668 67.2709241 67.05916208 70.63587008 69.35009766 73.95751953 C72 77.80905382 72 77.80905382 72 80 C62.55634004 81.28149874 52.285236 82.64749209 43 80 C36.27554311 74.81918814 33.0317868 66.71584495 30 59 C29.67 58.34 29.34 57.68 29 57 C28.67 64.59 28.34 72.18 28 80 C18.76 80 9.52 80 0 80 C0 53.6 0 27.2 0 0 Z " fill="#17427C" transform="translate(322,172)"/>
<path d="M0 0 C9.24 0 18.48 0 28 0 C28 5.28 28 10.56 28 16 C30.10375 15.87625 30.10375 15.87625 32.25 15.75 C41.08215135 15.77502026 49.47348027 18.6735181 56.31640625 24.29296875 C59.15927085 27.17540919 61.20346734 30.38604476 63 34 C63.52013672 35.00764404 63.52013672 35.00764404 64.05078125 36.03564453 C65.38613004 40.20586186 65.24687772 44.10595802 65.1953125 48.45703125 C65.1924826 49.35999435 65.18965271 50.26295746 65.18673706 51.19328308 C65.17557607 54.06649234 65.15047897 56.93938555 65.125 59.8125 C65.11496493 61.76496944 65.10584 63.71744379 65.09765625 65.66992188 C65.07735488 70.44683319 65.03819851 75.22306438 65 80 C56.09 80 47.18 80 38 80 C37.95101562 77.65261719 37.90203125 75.30523437 37.8515625 72.88671875 C37.7975504 70.61297233 37.7402439 68.33933117 37.68261719 66.06567383 C37.64433779 64.48567549 37.60948303 62.90559031 37.578125 61.32543945 C37.53245124 59.05388355 37.47446216 56.78292491 37.4140625 54.51171875 C37.40251129 53.80536789 37.39096008 53.09901703 37.37905884 52.3712616 C37.26928952 48.72258607 37.07857636 47.11786454 35 44 C32.45792029 43.66656449 32.45792029 43.66656449 30 44 C27.99496491 46.00503509 28.74411337 50.00025444 28.68359375 52.75390625 C28.66281265 53.52935287 28.64203156 54.3047995 28.62062073 55.10374451 C28.55504198 57.58990308 28.49620201 60.07617045 28.4375 62.5625 C28.39432267 64.24415204 28.35070864 65.92579294 28.30664062 67.60742188 C28.19852719 71.7381712 28.09951669 75.86899867 28 80 C18.76 80 9.52 80 0 80 C0 53.6 0 27.2 0 0 Z " fill="#17427C" transform="translate(157,172)"/>
<path d="M0 0 C8.91 0 17.82 0 27 0 C27.03738281 3.50238281 27.07476562 7.00476563 27.11328125 10.61328125 C27.15946979 13.99900624 27.21071326 17.38461949 27.26245117 20.77026367 C27.2957402 23.12631461 27.32375961 25.48244606 27.34643555 27.83862305 C27.37990803 31.22219207 27.43222092 34.60502054 27.48828125 37.98828125 C27.49467117 39.04461258 27.5010611 40.10094391 27.50764465 41.18928528 C27.53733589 42.66047066 27.53733589 42.66047066 27.56762695 44.16137695 C27.57873001 45.02519485 27.58983307 45.88901276 27.60127258 46.77900696 C28.08523877 49.47479735 28.82390254 50.37823007 31 52 C33.54230847 52.41679297 33.54230847 52.41679297 36 52 C38.2491908 50.17296773 38.2491908 50.17296773 38.25 47.5 C38.2491908 44.82703227 38.2491908 44.82703227 36 43 C33.69 42.67 31.38 42.34 29 42 C29 32.76 29 23.52 29 14 C41.84823925 14 48.70809796 15.65414865 57.7265625 24.40234375 C64.91540912 32.6164039 67.01230005 40.66353534 66.3828125 51.296875 C65.37765038 61.02027995 61.51056916 67.89574009 54.3046875 74.5703125 C45.71517048 81.2421699 35.59769041 82.32197994 25 81 C16.1715152 78.19093666 8.27428767 72.79443911 3.66015625 64.62890625 C1.17317298 59.23896742 -0.12744116 54.54481759 -0.11352539 48.58886719 C-0.11344986 47.50804871 -0.11337433 46.42723022 -0.11329651 45.31365967 C-0.10813522 44.15312073 -0.10297394 42.99258179 -0.09765625 41.796875 C-0.0962413 40.60394836 -0.09482635 39.41102173 -0.09336853 38.1819458 C-0.08777038 34.37127171 -0.07521819 30.56065634 -0.0625 26.75 C-0.05748476 24.16666752 -0.0529219 21.58333411 -0.04882812 19 C-0.0386524 12.66662583 -0.01907644 6.33337866 0 0 Z " fill="#0496B0" transform="translate(292,255)"/>
<path d="M0 0 C0.91808441 0.00424484 1.83616882 0.00848969 2.78207397 0.01286316 C5.67534428 0.02947378 8.5678826 0.067091 11.4609375 0.10546875 C13.43879193 0.12053843 15.41665742 0.1342228 17.39453125 0.14648438 C22.20883287 0.17675031 27.02157913 0.23550293 31.8359375 0.29296875 C31.8359375 8.54296875 31.8359375 16.79296875 31.8359375 25.29296875 C28.20658203 25.34904297 28.20658203 25.34904297 24.50390625 25.40625 C22.16063392 25.45246127 19.8175216 25.50369618 17.47436523 25.55541992 C15.84588341 25.58867411 14.21728619 25.61670459 12.58862305 25.6394043 C10.24738389 25.67294232 7.90720264 25.7252546 5.56640625 25.78125 C4.83818161 25.78763992 4.10995697 25.79402985 3.35966492 25.8006134 C0.41877388 25.88615971 -1.68037678 25.96950725 -4.1628418 27.62963867 C-5.45932578 29.41808399 -5.45932578 29.41808399 -4.9140625 32.41796875 C-4.45472726 35.17087716 -4.45472726 35.17087716 -3.1640625 36.29296875 C0.3359375 36.45963542 0.3359375 36.45963542 3.8359375 36.29296875 C4.1659375 35.96296875 4.4959375 35.63296875 4.8359375 35.29296875 C4.8359375 32.65296875 4.8359375 30.01296875 4.8359375 27.29296875 C12.0959375 27.29296875 19.3559375 27.29296875 26.8359375 27.29296875 C33.35115634 39.02036266 33.35115634 39.02036266 31.8359375 47.29296875 C29.40476601 53.36059589 24.94120261 58.45940497 18.91139221 61.15254211 C13.00825174 63.24992853 7.78359746 63.69387371 1.55078125 63.5859375 C0.60908585 63.58169266 -0.33260956 63.57744781 -1.30284119 63.57307434 C-4.27771968 63.55643091 -7.25189264 63.51880647 -10.2265625 63.48046875 C-12.2571516 63.46540335 -14.28775143 63.45171821 -16.31835938 63.43945312 C-21.2674102 63.40914044 -26.21495707 63.35039284 -31.1640625 63.29296875 C-31.1640625 54.71296875 -31.1640625 46.13296875 -31.1640625 37.29296875 C-25.2240625 36.79796875 -25.2240625 36.79796875 -19.1640625 36.29296875 C-20.4015625 36.29296875 -21.6390625 36.29296875 -22.9140625 36.29296875 C-25.51821028 35.95590707 -26.75963203 35.7185096 -28.5859375 33.796875 C-31.50951856 28.53231056 -32.07619513 23.19832229 -31.1640625 17.29296875 C-29.30404463 11.08557182 -25.58751005 6.7366423 -20.1640625 3.29296875 C-13.48739443 0.54682679 -7.15136271 -0.12770439 0 0 Z " fill="#0596B0" transform="translate(392.1640625,270.70703125)"/>
<path d="M0 0 C0.67289062 0.4640625 1.34578125 0.928125 2.0390625 1.40625 C3.1115625 2.128125 4.1840625 2.85 5.2890625 3.59375 C11.94872135 10.40476473 16.26745647 18.52841117 16.26565552 28.07136536 C16.25533295 28.9205101 16.24501038 29.76965485 16.234375 30.64453125 C16.2315451 31.52529831 16.22871521 32.40606537 16.22579956 33.31352234 C16.21464083 36.11540545 16.18954421 38.91696416 16.1640625 41.71875 C16.15402713 43.62304225 16.14490225 45.52733952 16.13671875 47.43164062 C16.11642059 52.09006806 16.07726393 56.74779762 16.0390625 61.40625 C7.1290625 61.40625 -1.7809375 61.40625 -10.9609375 61.40625 C-11.00992188 58.90289062 -11.05890625 56.39953125 -11.109375 53.8203125 C-11.16335511 51.40097982 -11.22067417 48.98174777 -11.27832031 46.5625 C-11.31664854 44.87865671 -11.35149462 43.19473045 -11.3828125 41.51074219 C-11.42838037 39.09279694 -11.48638673 36.67542472 -11.546875 34.2578125 C-11.55842621 33.5025528 -11.56997742 32.74729309 -11.58187866 31.96914673 C-11.56423816 27.72799802 -11.56423816 27.72799802 -13.9609375 24.40625 C-17.00276643 24.15619614 -17.00276643 24.15619614 -19.9609375 24.40625 C-21.29281543 25.51791864 -21.29281543 25.51791864 -21.1484375 28.34375 C-21.29372483 31.51517859 -21.29372483 31.51517859 -18.9609375 33.40625 C-16.9809375 33.73625 -15.0009375 34.06625 -12.9609375 34.40625 C-12.9609375 43.31625 -12.9609375 52.22625 -12.9609375 61.40625 C-25.67306198 61.40625 -32.95274754 59.02962408 -41.9609375 50.40625 C-48.89344594 41.68579535 -49.86953872 32.21913922 -49.19482422 21.41650391 C-48.21829177 13.02321774 -42.34287601 6.49534645 -35.9609375 1.40625 C-25.44216469 -5.17991447 -10.8290783 -6.51917757 0 0 Z " fill="#16417C" transform="translate(273.9609375,190.59375)"/>
<path d="M0 0 C8.48594187 5.20106115 15.31690043 12.68164494 18.1796875 22.3359375 C18.24701341 24.66829932 18.25912237 27.00395668 18.1796875 29.3359375 C14.22876691 29.41003151 10.27811456 29.46451156 6.32666016 29.50073242 C4.32049376 29.52326001 2.31452224 29.5613732 0.30859375 29.59960938 C-0.94824219 29.60927734 -2.20507812 29.61894531 -3.5 29.62890625 C-5.24385986 29.65247192 -5.24385986 29.65247192 -7.02294922 29.67651367 C-8.40764404 29.50792847 -8.40764404 29.50792847 -9.8203125 29.3359375 C-10.4803125 28.3459375 -11.1403125 27.3559375 -11.8203125 26.3359375 C-13.79778372 25.97295814 -13.79778372 25.97295814 -15.9453125 26.1484375 C-17.2240625 26.2103125 -18.5028125 26.2721875 -19.8203125 26.3359375 C-19.98708532 29.75249774 -19.98708532 29.75249774 -19.8203125 33.3359375 C-17.86397275 35.74715609 -17.86397275 35.74715609 -14.1953125 35.4609375 C-12.5246875 35.3990625 -12.5246875 35.3990625 -10.8203125 35.3359375 C-10.4903125 34.0159375 -10.1603125 32.6959375 -9.8203125 31.3359375 C-0.5803125 31.3359375 8.6596875 31.3359375 18.1796875 31.3359375 C17.10157656 42.11704691 15.20331552 49.37413607 7.21484375 56.80078125 C-1.89499609 63.67250305 -10.65773406 64.98251308 -21.8203125 64.3359375 C-29.88752693 63.01760711 -36.41635483 58.39992183 -41.61328125 52.1953125 C-47.98128153 43.20149481 -50.05994245 34.32913939 -48.8203125 23.3359375 C-47.86928774 20.0634369 -46.54061631 17.26881656 -44.8203125 14.3359375 C-44.2428125 13.3046875 -43.6653125 12.2734375 -43.0703125 11.2109375 C-32.57801042 -2.19589293 -15.95290185 -7.57359987 0 0 Z " fill="#16417B" transform="translate(135.8203125,189.6640625)"/>
<path d="M0 0 C6.56701717 4.18250728 11.61902398 8.94221256 15 16 C15.51796143 17.00546875 15.51796143 17.00546875 16.04638672 18.03125 C17.38661967 22.20360859 17.24691728 26.10261997 17.1953125 30.45703125 C17.1924826 31.35999435 17.18965271 32.26295746 17.18673706 33.19328308 C17.17557607 36.06649234 17.15047897 38.93938555 17.125 41.8125 C17.11496493 43.76496944 17.10584 45.71744379 17.09765625 47.66992188 C17.07735488 52.44683319 17.03819851 57.22306438 17 62 C8.09 62 -0.82 62 -10 62 C-10.33 50.12 -10.66 38.24 -11 26 C-13.31 25.67 -15.62 25.34 -18 25 C-18.66 25.66 -19.32 26.32 -20 27 C-19.81242938 30.82564665 -19.81242938 30.82564665 -18 34 C-15.69 34.33 -13.38 34.66 -11 35 C-11 43.91 -11 52.82 -11 62 C-22.76115092 62 -30.51542215 60.41968624 -39 52 C-46.44313822 42.83553645 -48.09448296 33.6164756 -47.27685547 22.05761719 C-46.18128897 13.91525877 -40.57134172 7.66933375 -34.41015625 2.66015625 C-24.13838182 -4.41521512 -11.33952472 -5.40752455 0 0 Z " fill="#0397B1" transform="translate(272,272)"/>
<path d="M0 0 C9.24 0 18.48 0 28 0 C28 26.4 28 52.8 28 80 C18.76 80 9.52 80 0 80 C0 53.6 0 27.2 0 0 Z " fill="#17427B" transform="translate(292,172)"/>
<path d="M0 0 C9.24 0 18.48 0 28 0 C28 26.07 28 52.14 28 79 C18.76 79 9.52 79 0 79 C0 52.93 0 26.86 0 0 Z " fill="#0196B1" transform="translate(194,255)"/>
<path d="M0 0 C0.91652344 0.01160156 1.83304687 0.02320313 2.77734375 0.03515625 C3.69644531 0.04417969 4.61554688 0.05320313 5.5625 0.0625 C6.27277344 0.07410156 6.98304688 0.08570313 7.71484375 0.09765625 C7.71484375 0.42765625 7.71484375 0.75765625 7.71484375 1.09765625 C4.74484375 1.09765625 1.77484375 1.09765625 -1.28515625 1.09765625 C-1.28515625 27.49765625 -1.28515625 53.89765625 -1.28515625 81.09765625 C7.95484375 81.09765625 17.19484375 81.09765625 26.71484375 81.09765625 C27.80990867 84.382851 27.81444983 86.8342904 27.77734375 90.28515625 C27.76832031 91.37183594 27.75929688 92.45851563 27.75 93.578125 C27.73839844 94.40957031 27.72679687 95.24101562 27.71484375 96.09765625 C28.78734375 96.05640625 29.85984375 96.01515625 30.96484375 95.97265625 C34.71484375 96.09765625 34.71484375 96.09765625 38.71484375 98.09765625 C35.08484375 98.09765625 31.45484375 98.09765625 27.71484375 98.09765625 C27.71484375 107.33765625 27.71484375 116.57765625 27.71484375 126.09765625 C30.02484375 126.09765625 32.33484375 126.09765625 34.71484375 126.09765625 C36.65234375 127.28515625 36.65234375 127.28515625 37.71484375 129.09765625 C38.14158891 131.94262397 38.07551366 133.46117994 36.65234375 135.97265625 C33.51189682 137.79614156 31.11631245 136.96348465 27.71484375 136.09765625 C25.55294522 132.85480846 25.4685762 131.99669404 25.48779297 128.2590332 C25.48794403 127.27824295 25.48809509 126.2974527 25.48825073 125.28694153 C25.4985733 124.2306102 25.50889587 123.17427887 25.51953125 122.0859375 C25.52236115 121.00257614 25.52519104 119.91921478 25.52810669 118.80302429 C25.53931284 115.33862317 25.56441841 111.8744794 25.58984375 108.41015625 C25.59987298 106.06315477 25.60899893 103.71614925 25.6171875 101.36914062 C25.63755305 95.61179995 25.6767015 89.8550166 25.71484375 84.09765625 C16.80484375 84.09765625 7.89484375 84.09765625 -1.28515625 84.09765625 C-0.95515625 103.23765625 -0.62515625 122.37765625 -0.28515625 142.09765625 C-0.94515625 142.09765625 -1.60515625 142.09765625 -2.28515625 142.09765625 C-2.27991943 142.72857178 -2.27468262 143.3594873 -2.26928711 144.00952148 C-2.24857799 146.85138972 -2.23551559 149.69324213 -2.22265625 152.53515625 C-2.21427734 153.52837891 -2.20589844 154.52160156 -2.19726562 155.54492188 C-2.19404297 156.48916016 -2.19082031 157.43339844 -2.1875 158.40625 C-2.18226318 159.28079834 -2.17702637 160.15534668 -2.17163086 161.05639648 C-2.28515625 163.09765625 -2.28515625 163.09765625 -3.28515625 164.09765625 C-6.27076153 164.23634811 -9.23144299 164.31092292 -12.21875 164.3359375 C-13.1258522 164.34400925 -14.03295441 164.35208099 -14.96754456 164.36039734 C-16.89688189 164.37426437 -18.82624403 164.38497474 -20.75561523 164.39282227 C-23.67936519 164.40990334 -26.60194517 164.4537485 -29.52539062 164.49804688 C-31.40233545 164.50818526 -33.27928989 164.51669776 -35.15625 164.5234375 C-36.45217323 164.54969963 -36.45217323 164.54969963 -37.77427673 164.57649231 C-46.03364064 164.5476195 -53.25318016 162.41681055 -59.22265625 156.53515625 C-60.25330852 155.39814674 -61.27479677 154.25273566 -62.28515625 153.09765625 C-62.84332031 152.57300781 -63.40148437 152.04835938 -63.9765625 151.5078125 C-65.28515625 150.09765625 -65.28515625 150.09765625 -65.28515625 148.09765625 C-66.27515625 148.09765625 -67.26515625 148.09765625 -68.28515625 148.09765625 C-68.78015625 149.08765625 -68.78015625 149.08765625 -69.28515625 150.09765625 C-68.95515625 146.79765625 -68.62515625 143.49765625 -68.28515625 140.09765625 C-68.94515625 140.09765625 -69.60515625 140.09765625 -70.28515625 140.09765625 C-70.28515625 147.68765625 -70.28515625 155.27765625 -70.28515625 163.09765625 C-70.61515625 163.09765625 -70.94515625 163.09765625 -71.28515625 163.09765625 C-71.28515625 137.02765625 -71.28515625 110.95765625 -71.28515625 84.09765625 C-70.95515625 84.09765625 -70.62515625 84.09765625 -70.28515625 84.09765625 C-70.28515625 95.97765625 -70.28515625 107.85765625 -70.28515625 120.09765625 C-69.62515625 120.09765625 -68.96515625 120.09765625 -68.28515625 120.09765625 C-68.1871875 119.41058594 -68.08921875 118.72351563 -67.98828125 118.015625 C-67.83875 117.11457031 -67.68921875 116.21351563 -67.53515625 115.28515625 C-67.3959375 114.39183594 -67.25671875 113.49851562 -67.11328125 112.578125 C-66.101689 109.54811991 -65.08984416 108.5779082 -62.28515625 107.09765625 C-61.29515625 107.42765625 -60.30515625 107.75765625 -59.28515625 108.09765625 C-59.69507813 108.7009375 -60.105 109.30421875 -60.52734375 109.92578125 C-61.06617188 110.725 -61.605 111.52421875 -62.16015625 112.34765625 C-62.96066406 113.53101563 -62.96066406 113.53101563 -63.77734375 114.73828125 C-64.52371094 115.90617187 -64.52371094 115.90617187 -65.28515625 117.09765625 C-65.86523438 117.98324219 -65.86523438 117.98324219 -66.45703125 118.88671875 C-69.10418367 125.95411626 -68.25177424 136.72528769 -65.66015625 143.72265625 C-61.76903529 151.73618857 -55.77535319 157.7457631 -47.3125 160.8125 C-42.33757161 162.16750038 -37.44630514 162.52419526 -32.28515625 163.09765625 C-32.28515625 154.18765625 -32.28515625 145.27765625 -32.28515625 136.09765625 C-34.59515625 136.09765625 -36.90515625 136.09765625 -39.28515625 136.09765625 C-41.28515625 134.41015625 -41.28515625 134.41015625 -42.28515625 132.09765625 C-42.04441603 128.72729314 -41.69717604 127.50967604 -39.28515625 125.09765625 C-32.70823317 125.67457933 -32.70823317 125.67457933 -31.28515625 127.09765625 C-31.19660464 129.76391655 -31.16990952 132.40412739 -31.1875 135.0703125 C-31.18891495 135.86795517 -31.1903299 136.66559784 -31.19178772 137.4874115 C-31.19740309 140.0450306 -31.20995813 142.60256343 -31.22265625 145.16015625 C-31.22766927 146.8899727 -31.23223252 148.61979051 -31.23632812 150.34960938 C-31.24652834 154.59901864 -31.26610057 158.84824041 -31.28515625 163.09765625 C-22.37515625 163.09765625 -13.46515625 163.09765625 -4.28515625 163.09765625 C-4.3133676 157.43999924 -4.35675772 151.78647303 -4.43774414 146.12988281 C-4.46080286 144.20972045 -4.47529112 142.28943378 -4.48071289 140.36914062 C-4.2635685 125.4390273 -4.2635685 125.4390273 -10.28515625 112.09765625 C-10.90390625 111.16953125 -11.52265625 110.24140625 -12.16015625 109.28515625 C-14.94908577 106.41419939 -17.96484663 104.33248003 -21.28515625 102.09765625 C-20.29515625 101.76765625 -19.30515625 101.43765625 -18.28515625 101.09765625 C-16.6015625 102.3125 -16.6015625 102.3125 -14.84765625 104.03515625 C-11.92359491 106.9068854 -11.69952673 107.09765625 -7.28515625 107.09765625 C-6.62515625 107.75765625 -5.96515625 108.41765625 -5.28515625 109.09765625 C-4.62515625 100.18765625 -3.96515625 91.27765625 -3.28515625 82.09765625 C-7.52119857 82.21744806 -11.75696014 82.34004966 -15.99267578 82.4699707 C-17.43403245 82.51331856 -18.87544043 82.55499377 -20.31689453 82.5949707 C-22.38720166 82.65267713 -24.45725057 82.71636996 -26.52734375 82.78125 C-27.77370605 82.81790771 -29.02006836 82.85456543 -30.30419922 82.89233398 C-33.21152567 82.90055104 -33.21152567 82.90055104 -35.28515625 84.09765625 C-35.28515625 83.43765625 -35.28515625 82.77765625 -35.28515625 82.09765625 C-37.92515625 82.09765625 -40.56515625 82.09765625 -43.28515625 82.09765625 C-43.28515625 81.76765625 -43.28515625 81.43765625 -43.28515625 81.09765625 C-39.65515625 81.09765625 -36.02515625 81.09765625 -32.28515625 81.09765625 C-32.28515625 72.18765625 -32.28515625 63.27765625 -32.28515625 54.09765625 C-34.26515625 54.09765625 -36.24515625 54.09765625 -38.28515625 54.09765625 C-40.16015625 52.97265625 -40.16015625 52.97265625 -41.28515625 51.09765625 C-41.59765625 48.03515625 -41.59765625 48.03515625 -41.28515625 45.09765625 C-39.28515625 43.09765625 -39.28515625 43.09765625 -36.34765625 42.78515625 C-33.28515625 43.09765625 -33.28515625 43.09765625 -31.61206055 44.12036133 C-29.53566074 47.21452178 -29.91796629 50.45130983 -29.9921875 54.046875 C-29.99643234 54.81949173 -30.00067719 55.59210846 -30.00505066 56.38813782 C-30.02183442 58.85416617 -30.05948478 61.31937521 -30.09765625 63.78515625 C-30.11270354 65.45767048 -30.12639187 67.13019753 -30.13867188 68.80273438 C-30.1691846 72.90161072 -30.22790257 76.99871721 -30.28515625 81.09765625 C-21.37515625 81.09765625 -12.46515625 81.09765625 -3.28515625 81.09765625 C-3.61515625 66.90765625 -3.94515625 52.71765625 -4.28515625 38.09765625 C-3.95515625 38.09765625 -3.62515625 38.09765625 -3.28515625 38.09765625 C-3.29039307 36.98205322 -3.29562988 35.8664502 -3.30102539 34.71704102 C-3.319074 30.59286292 -3.33058774 26.46868834 -3.34008789 22.34448242 C-3.34512843 20.55671604 -3.35196079 18.7689538 -3.3605957 16.98120117 C-3.37267355 14.41714457 -3.37838719 11.85314228 -3.3828125 9.2890625 C-3.38797379 8.48489395 -3.39313507 7.6807254 -3.39845276 6.85218811 C-3.3986484 4.9336391 -3.34717608 3.01520257 -3.28515625 1.09765625 C-2.28515625 0.09765625 -2.28515625 0.09765625 0 0 Z " fill="#DFF4FC" transform="translate(293.28515625,170.90234375)"/>
<path d="M0 0 C0.33 0 0.66 0 1 0 C1 11.88 1 23.76 1 36 C1.66 36 2.32 36 3 36 C3.14695313 34.96939453 3.14695313 34.96939453 3.296875 33.91796875 C3.44640625 33.01691406 3.5959375 32.11585938 3.75 31.1875 C3.95882812 29.84751953 3.95882812 29.84751953 4.171875 28.48046875 C5.18346725 25.45046366 6.19531209 24.48025195 9 23 C9.99 23.33 10.98 23.66 12 24 C11.59007812 24.60328125 11.18015625 25.2065625 10.7578125 25.828125 C10.21898437 26.62734375 9.68015625 27.4265625 9.125 28.25 C8.59132812 29.03890625 8.05765625 29.8278125 7.5078125 30.640625 C6.76144531 31.80851562 6.76144531 31.80851562 6 33 C5.61328125 33.59039062 5.2265625 34.18078125 4.828125 34.7890625 C2.18097258 41.85646001 3.03338201 52.62763144 5.625 59.625 C9.51612096 67.63853232 15.50980306 73.64810685 23.97265625 76.71484375 C28.94758464 78.06984413 33.83885111 78.42653901 39 79 C39 70.09 39 61.18 39 52 C36.69 52 34.38 52 32 52 C30 50.3125 30 50.3125 29 48 C29.24074022 44.62963689 29.58798021 43.41201979 32 41 C38.57692308 41.57692308 38.57692308 41.57692308 40 43 C40.08855161 45.6662603 40.11524673 48.30647114 40.09765625 50.97265625 C40.0962413 51.77029892 40.09482635 52.56794159 40.09336853 53.38975525 C40.08775316 55.94737435 40.07519812 58.50490718 40.0625 61.0625 C40.05748698 62.79231645 40.05292373 64.52213426 40.04882812 66.25195312 C40.03862791 70.50136239 40.01905568 74.75058416 40 79 C48.91 79 57.82 79 67 79 C66.90288894 73.27044772 66.80004811 67.54158909 66.68261719 61.8125 C66.64441767 59.86497202 66.60954925 57.91737565 66.578125 55.96972656 C66.53227804 53.16446554 66.47431634 50.35967161 66.4140625 47.5546875 C66.40251129 46.68883026 66.39096008 45.82297302 66.37905884 44.93087769 C66.26560224 40.24637958 65.78636769 36.40637364 64 32 C64.66 32 65.32 32 66 32 C66.66 32.99 67.32 33.98 68 35 C68.33 23.45 68.66 11.9 69 0 C69.33 0 69.66 0 70 0 C70.33 19.14 70.66 38.28 71 58 C70.34 58 69.68 58 69 58 C69.00523682 58.63091553 69.01047363 59.26183105 69.01586914 59.91186523 C69.03657826 62.75373347 69.04964066 65.59558588 69.0625 68.4375 C69.07087891 69.43072266 69.07925781 70.42394531 69.08789062 71.44726562 C69.09111328 72.39150391 69.09433594 73.33574219 69.09765625 74.30859375 C69.10289307 75.18314209 69.10812988 76.05769043 69.11352539 76.95874023 C69 79 69 79 68 80 C65.01439472 80.13869186 62.05371326 80.21326667 59.06640625 80.23828125 C58.15930405 80.246353 57.25220184 80.25442474 56.31761169 80.26274109 C54.38827436 80.27660812 52.45891222 80.28731849 50.52954102 80.29516602 C47.60579106 80.31224709 44.68321108 80.35609225 41.75976562 80.40039062 C39.8828208 80.41052901 38.00586636 80.41904151 36.12890625 80.42578125 C34.83298302 80.45204338 34.83298302 80.45204338 33.51087952 80.47883606 C25.25151561 80.44996325 18.03197609 78.3191543 12.0625 72.4375 C11.03184773 71.30049049 10.01035948 70.15507941 9 69 C8.44183594 68.47535156 7.88367188 67.95070313 7.30859375 67.41015625 C6 66 6 66 6 64 C5.01 64 4.02 64 3 64 C2.505 64.99 2.505 64.99 2 66 C2.33 62.7 2.66 59.4 3 56 C2.34 56 1.68 56 1 56 C1 63.59 1 71.18 1 79 C0.67 79 0.34 79 0 79 C0 52.93 0 26.86 0 0 Z " fill="#C3F6FB" transform="translate(222,255)"/>
<path d="M0 0 C9.24 0 18.48 0 28 0 C28 26.07 28 52.14 28 79 C18.76 79 9.52 79 0 79 C0 52.93 0 26.86 0 0 Z M2 2 C2 27.08 2 52.16 2 78 C10.25 78 18.5 78 27 78 C27 52.92 27 27.84 27 2 C18.75 2 10.5 2 2 2 Z " fill="#2F97A7" transform="translate(194,255)"/>
<path d="M0 0 C0.763125 0.309375 1.52625 0.61875 2.3125 0.9375 C4.18789677 1.67893593 6.08684652 2.36228217 8 3 C8.6875 5.0625 8.6875 5.0625 9 7 C9.66 7 10.32 7 11 7 C12.65 9.97 14.3 12.94 16 16 C17.95216435 14.04783565 18.84826645 12.46800047 20 10 C20.33 10.66 20.66 11.32 21 12 C20.67 12.99 20.34 13.98 20 15 C19.43556052 21.20883429 19.42689045 26.75199535 23 32 C25.72429675 32.80963036 28.12768462 32.861017 31 33 C31.33 33.66 31.66 34.32 32 35 C27.71 35 23.42 35 19 35 C19 43.58 19 52.16 19 61 C24.95975622 60.92572715 30.91808651 60.84265032 36.87719727 60.73754883 C38.90120874 60.70444772 40.92530924 60.67637043 42.94946289 60.65356445 C45.87163973 60.61974463 48.79301158 60.56741659 51.71484375 60.51171875 C52.60896469 60.50532883 53.50308563 60.4989389 54.42430115 60.49235535 C62.39729473 60.30889057 69.33468354 58.51521438 76 54 C74.62206922 57.39838878 73.40968849 58.71829162 70.07250977 60.22558594 C64.64142317 62.43937166 59.63882462 62.51258794 53.83984375 62.390625 C52.29412437 62.38213531 52.29412437 62.38213531 50.71717834 62.37347412 C47.45679371 62.35125474 44.19754708 62.30108508 40.9375 62.25 C38.71420869 62.22991636 36.49089998 62.21166887 34.26757812 62.1953125 C28.84427117 62.15485516 23.42339485 62.07653556 18 62 C17.67 54.74 17.34 47.48 17 40 C16.34 40 15.68 40 15 40 C15.06960938 38.76765625 15.13921875 37.5353125 15.2109375 36.265625 C15.62012608 25.97552146 15.52762388 17.54525308 9 9 C6.68994158 6.62608631 4.34716797 4.48957447 1.7578125 2.42578125 C1.17773438 1.95527344 0.59765625 1.48476563 0 1 C0 0.67 0 0.34 0 0 Z " fill="#BBEEF3" transform="translate(342,273)"/>
<path d="M0 0 C0.66 0 1.32 0 2 0 C2 3.96 2 7.92 2 12 C3.0725 11.95875 4.145 11.9175 5.25 11.875 C9 12 9 12 13 14 C9.37 14 5.74 14 2 14 C2 23.24 2 32.48 2 42 C4.31 42 6.62 42 9 42 C10.9375 43.1875 10.9375 43.1875 12 45 C12.42674516 47.84496772 12.36066991 49.36352369 10.9375 51.875 C7.79705307 53.69848531 5.4014687 52.8658284 2 52 C-0.16189853 48.75715221 -0.24626755 47.89903779 -0.22705078 44.16137695 C-0.22689972 43.1805867 -0.22674866 42.19979645 -0.22659302 41.18928528 C-0.21627045 40.13295395 -0.20594788 39.07662262 -0.1953125 37.98828125 C-0.1924826 36.90491989 -0.18965271 35.82155853 -0.18673706 34.70536804 C-0.17553091 31.24096692 -0.15042534 27.77682315 -0.125 24.3125 C-0.11497077 21.96549852 -0.10584482 19.618493 -0.09765625 17.27148438 C-0.07559016 11.51423493 -0.04210827 5.75713585 0 0 Z " fill="#A8ECF2" transform="translate(319,255)"/>
<path d="M0 0 C0.75042068 0.00424484 1.50084137 0.00848969 2.27400208 0.01286316 C4.66871151 0.02964425 7.06257659 0.06729385 9.45703125 0.10546875 C11.08136805 0.1205164 12.70571805 0.13420466 14.33007812 0.14648438 C18.31022073 0.1795457 22.28973288 0.23132281 26.26953125 0.29296875 C26.26953125 0.62296875 26.26953125 0.95296875 26.26953125 1.29296875 C20.6342616 2.49781597 15.1241701 2.40593305 9.39453125 2.35546875 C8.42 2.35095703 7.44546875 2.34644531 6.44140625 2.34179688 C4.05071691 2.33007781 1.66015685 2.31367094 -0.73046875 2.29296875 C-0.40046875 2.95296875 -0.07046875 3.61296875 0.26953125 4.29296875 C0.45703125 7.29296875 0.45703125 7.29296875 0.26953125 10.29296875 C-1.73046875 12.29296875 -1.73046875 12.29296875 -5.16796875 12.66796875 C-8.73046875 12.29296875 -8.73046875 12.29296875 -10.73046875 10.60546875 C-12.00847128 7.65008789 -11.81098737 6.30298492 -10.73046875 3.29296875 C-8.1097071 -0.70355842 -4.31669045 -0.09178351 0 0 Z " fill="#C7EEF3" transform="translate(397.73046875,295.70703125)"/>
<path d="M0 0 C3.0625 0.3125 3.0625 0.3125 4.7355957 1.33520508 C6.81199551 4.42936553 6.42968996 7.66615358 6.35546875 11.26171875 C6.35122391 12.03433548 6.34697906 12.80695221 6.34260559 13.60298157 C6.32582183 16.06900992 6.28817147 18.53421896 6.25 21 C6.23495271 22.67251423 6.22126438 24.34504128 6.20898438 26.01757812 C6.17591946 30.11620078 6.12414028 34.21421151 6.0625 38.3125 C5.4025 38.3125 4.7425 38.3125 4.0625 38.3125 C4.0625 29.4025 4.0625 20.4925 4.0625 11.3125 C2.0825 11.3125 0.1025 11.3125 -1.9375 11.3125 C-3.8125 10.1875 -3.8125 10.1875 -4.9375 8.3125 C-5.25 5.25 -5.25 5.25 -4.9375 2.3125 C-2.9375 0.3125 -2.9375 0.3125 0 0 Z " fill="#D0DEF3" transform="translate(256.9375,213.6875)"/>
<path d="M0 0 C0.33 0 0.66 0 1 0 C1.33 19.14 1.66 38.28 2 58 C1.34 58 0.68 58 0 58 C0 64.93 0 71.86 0 79 C-0.66 79 -1.32 79 -2 79 C-2.01981934 77.78940918 -2.03963867 76.57881836 -2.06005859 75.33154297 C-2.13633336 70.8249896 -2.2250168 66.31874991 -2.31738281 61.8125 C-2.35558233 59.86497202 -2.39045075 57.91737565 -2.421875 55.96972656 C-2.46772196 53.16446554 -2.52568366 50.35967161 -2.5859375 47.5546875 C-2.59748871 46.68883026 -2.60903992 45.82297302 -2.62094116 44.93087769 C-2.73439776 40.24637958 -3.21363231 36.40637364 -5 32 C-4.34 32 -3.68 32 -3 32 C-2.34 32.99 -1.68 33.98 -1 35 C-0.67 23.45 -0.34 11.9 0 0 Z " fill="#ABE7EE" transform="translate(291,255)"/>
<path d="M0 0 C-0.33 0.66 -0.66 1.32 -1 2 C-1.99 1.67 -2.98 1.34 -4 1 C-14.60605212 0.02910994 -23.00161856 0.62497114 -32 7 C-34.48493623 9.11269882 -36.27619047 11.23733837 -38 14 C-38.61488281 14.96679688 -38.61488281 14.96679688 -39.2421875 15.953125 C-42.8155104 22.60689869 -42.88487716 29.61467908 -42 37 C-41.15913838 39.62406816 -40.18438587 41.90939833 -38.875 44.328125 C-38 46 -38 46 -38 48 C-37.34 48 -36.68 48 -36 48 C-35.566875 48.9590625 -35.566875 48.9590625 -35.125 49.9375 C-34.17176549 52.15206079 -34.17176549 52.15206079 -32 53 C-32 53.66 -32 54.32 -32 55 C-31.360625 55.28875 -30.72125 55.5775 -30.0625 55.875 C-28 57 -28 57 -27 59 C-35.01769636 55.60789769 -39.21926739 49.57378032 -43 42 C-45.52224101 34.89466251 -45.20507199 24.86358958 -42.9765625 17.71875 C-38.42926923 8.77490247 -31.18595967 1.96363222 -21.6796875 -1.3828125 C-14.32873615 -3.07588876 -7.0539828 -2.56508465 0 0 Z " fill="#2E95A8" transform="translate(269,271)"/>
<path d="M0 0 C0.66 0.66 1.32 1.32 2 2 C1.70020645 4.69814197 0.67116762 6.67196182 -0.52734375 9.12109375 C-2.29454436 13.23671949 -2.45882046 16.94099748 -2.375 21.375 C-2.36919922 22.1187085 -2.36339844 22.86241699 -2.35742188 23.62866211 C-2.2249794 29.24091205 -1.2597274 33.82145805 1 39 C0.34 39 -0.32 39 -1 39 C-1.66 37.35 -2.32 35.7 -3 34 C-3.66 34 -4.32 34 -5 34 C-5 40.93 -5 47.86 -5 55 C-5.33 55 -5.66 55 -6 55 C-6.01401855 53.21553467 -6.01401855 53.21553467 -6.02832031 51.39501953 C-6.06848442 46.94038779 -6.13431426 42.48642764 -6.20751953 38.03222656 C-6.23557694 36.11206757 -6.25686649 34.19179636 -6.27099609 32.27148438 C-6.09157784 17.59980637 -6.09157784 17.59980637 -11 4 C-8 5 -8 5 -6.3125 8.0625 C-5.879375 9.031875 -5.44625 10.00125 -5 11 C-3.35173889 8.03312999 -2.55728913 5.34373475 -2 2 C-1.34 2 -0.68 2 0 2 C0 1.34 0 0.68 0 0 Z " fill="#DFEBF8" transform="translate(228,197)"/>
<path d="M0 0 C4.17182338 3.59639947 6.61603802 7.73481115 7.25961304 13.20773315 C7.34527892 15.69488515 7.33773138 18.16413857 7.29296875 20.65234375 C7.28872391 21.55247696 7.28447906 22.45261017 7.28010559 23.38002014 C7.26341816 26.23282786 7.22578497 29.08490863 7.1875 31.9375 C7.1724403 33.88084912 7.15875415 35.82420939 7.14648438 37.76757812 C7.11610895 42.51221878 7.05736982 47.25530326 7 52 C-1.58 52 -10.16 52 -19 52 C-19 40.78 -19 29.56 -19 18 C-18.67 18 -18.34 18 -18 18 C-18 28.56 -18 39.12 -18 50 C-10.41 50.33 -2.82 50.66 5 51 C5 37.47 5 23.94 5 10 C4.01 10.33 3.02 10.66 2 11 C1.34 7.37 0.68 3.74 0 0 Z " fill="#198DA1" transform="translate(282,282)"/>
<path d="M0 0 C0.66 1.32 1.32 2.64 2 4 C11.24 4 20.48 4 30 4 C30.33 3.01 30.66 2.02 31 1 C31 2.32 31 3.64 31 5 C21.43 5 11.86 5 2 5 C1.67 6.65 1.34 8.3 1 10 C-5.36 11.32 -5.36 11.32 -8 10 C-9.58777289 6.82445422 -8.80754931 4.3544356 -8 1 C-5.29120665 -0.35439668 -2.99066732 -0.06501451 0 0 Z " fill="#C8D6E7" transform="translate(124,215)"/>
<path d="M0 0 C0.33 0 0.66 0 1 0 C1 10.89 1 21.78 1 33 C9.91 33 18.82 33 28 33 C28 33.99 28 34.98 28 36 C18.76 36 9.52 36 0 36 C0 24.12 0 12.24 0 0 Z " fill="#C5E2F0" transform="translate(194,219)"/>
<path d="M0 0 C0.66 0.33 1.32 0.66 2 1 C2.37366113 2.99285937 2.70740515 4.99363529 3 7 C4.6 8.8 4.6 8.8 11 9 C11 17.91 11 26.82 11 36 C0.875 36 0.875 36 -3.5625 34.5 C-4.40941406 34.2215625 -5.25632813 33.943125 -6.12890625 33.65625 C-6.74636719 33.4396875 -7.36382812 33.223125 -8 33 C-2.49349364 31.05091483 3.43591246 33.05410512 9 34 C9 26.41 9 18.82 9 11 C6.03 10.505 6.03 10.505 3 10 C1.125 8.875 1.125 8.875 0 7 C-0.1875 3.3125 -0.1875 3.3125 0 0 Z " fill="#2893A6" transform="translate(250,298)"/>
<path d="M0 0 C5.34004213 6.7330966 4.54894838 14.77839386 4 23 C2.64834212 31.69277226 -2.86655767 38.84574974 -9.75 44.125 C-11.35875 45.053125 -11.35875 45.053125 -13 46 C-13.99 45.67 -14.98 45.34 -16 45 C-14.35 44.34 -12.7 43.68 -11 43 C-11.495 41.515 -11.495 41.515 -12 40 C-11 39 -11 39 -8.4375 38.9375 C-7.633125 38.958125 -6.82875 38.97875 -6 39 C-6.33 37.35 -6.66 35.7 -7 34 C-6.195625 33.731875 -5.39125 33.46375 -4.5625 33.1875 C-3.2940625 32.5996875 -3.2940625 32.5996875 -2 32 C-1.67 31.01 -1.34 30.02 -1 29 C-0.34 29 0.32 29 1 29 C3.00453703 16.1720012 3.00453703 16.1720012 0 4 C0 2.68 0 1.36 0 0 Z " fill="#2693A6" transform="translate(354,287)"/>
<path d="M0 0 C0.4125 0.37511719 0.825 0.75023437 1.25 1.13671875 C10.60920987 9.43048286 18.46608026 13.62973133 31.1875 13.32421875 C37.23216639 12.81017437 42.31409538 11.04989806 47.14453125 7.36328125 C49 6 49 6 51 6 C50.65811929 8.62295368 50.3068433 9.73679356 48.26953125 11.484375 C38.94839394 16.28572395 27.29336512 16.44304884 17 15 C16.01 14.34 15.02 13.68 14 13 C10.87478167 12.83300768 10.87478167 12.83300768 8 13 C7.4225 11.9275 6.845 10.855 6.25 9.75 C4.51416443 6.68129069 2.5435929 4.45275029 0 2 C0 1.34 0 0.68 0 0 Z " fill="#CAF2F6" transform="translate(297,322)"/>
<path d="M0 0 C0.33 0 0.66 0 1 0 C1.33 10.56 1.66 21.12 2 32 C9.59 32 17.18 32 25 32 C25.33 22.1 25.66 12.2 26 2 C26.33 2 26.66 2 27 2 C27 12.56 27 23.12 27 34 C18.09 34 9.18 34 0 34 C0 22.78 0 11.56 0 0 Z " fill="#1D3E6A" transform="translate(195,218)"/>
<path d="M0 0 C0.33 0 0.66 0 1 0 C1 7.92 1 15.84 1 24 C-0.95216435 20.09567131 -1.50639991 17.27786748 -2 13 C-4.31 14.65 -6.62 16.3 -9 18 C-9.66 17.67 -10.32 17.34 -11 17 C-10.54109375 16.35933594 -10.0821875 15.71867187 -9.609375 15.05859375 C-6.1323166 10.15711017 -2.86988604 5.28059031 0 0 Z " fill="#DDF1F6" transform="translate(359,310)"/>
<path d="M0 0 C12.375 0 12.375 0 17 2 C17 2.33 17 2.66 17 3 C12.05 2.67 7.1 2.34 2 2 C2.08378906 3.38574219 2.16757812 4.77148438 2.25390625 6.19921875 C2.35710364 8.02862709 2.45994981 9.85805527 2.5625 11.6875 C2.61857422 12.59951172 2.67464844 13.51152344 2.73242188 14.45117188 C2.78076172 15.33740234 2.82910156 16.22363281 2.87890625 17.13671875 C2.94960327 18.35427856 2.94960327 18.35427856 3.02172852 19.59643555 C2.99838228 22.1789485 2.5804792 24.48849909 2 27 C1.34 27 0.68 27 0 27 C0 18.09 0 9.18 0 0 Z " fill="#2491A0" transform="translate(321,269)"/>
<path d="M0 0 C0.99 0 1.98 0 3 0 C3 12.21 3 24.42 3 37 C11.25 37 19.5 37 28 37 C28 33.04 28 29.08 28 25 C28.33 25 28.66 25 29 25 C29 29.29 29 33.58 29 38 C20.09 38 11.18 38 2 38 C1.93941406 35.50824219 1.87882812 33.01648438 1.81640625 30.44921875 C1.75460159 28.0365093 1.69122022 25.62384608 1.62768555 23.21118164 C1.58436833 21.53414013 1.54269093 19.85705542 1.50268555 18.17993164 C1.44490515 15.76956159 1.3812332 13.3594083 1.31640625 10.94921875 C1.29969376 10.19912033 1.28298126 9.44902191 1.26576233 8.67619324 C1.17655767 5.54322008 0.99763547 2.9929064 0 0 Z " fill="#20416C" transform="translate(261,214)"/>
<path d="M0 0 C0.99 0 1.98 0 3 0 C4.65 4.29 6.3 8.58 8 13 C5.36 13.99 2.72 14.98 0 16 C0 10.72 0 5.44 0 0 Z " fill="#E0F2F0" transform="translate(291,313)"/>
<path d="M0 0 C3.12578199 3.12578199 5.06966456 6.36926865 7.1875 10.1875 C7.55552734 10.84169922 7.92355469 11.49589844 8.30273438 12.16992188 C9.2062466 13.77746961 10.1037241 15.38840651 11 17 C9.078125 16.66015625 9.078125 16.66015625 7 16 C5.75 13.4375 5.75 13.4375 5 11 C3.68 11.33 2.36 11.66 1 12 C1.33 15.96 1.66 19.92 2 24 C1.34 24 0.68 24 0 24 C0 16.08 0 8.16 0 0 Z " fill="#DEEAF7" transform="translate(350,228)"/>
<path d="M0 0 C0.33 0 0.66 0 1 0 C1.03738281 0.83402344 1.07476562 1.66804687 1.11328125 2.52734375 C1.52381216 9.5546669 2.44234969 15.43907095 5 22 C4.34 22 3.68 22 3 22 C2.34 20.35 1.68 18.7 1 17 C0.34 17 -0.32 17 -1 17 C-1 23.93 -1 30.86 -1 38 C-1.33 38 -1.66 38 -2 38 C-2.04950115 33.23113513 -2.08576738 28.46242041 -2.10986328 23.69335938 C-2.11991023 22.07158808 -2.13355015 20.44983484 -2.15087891 18.828125 C-2.17518493 16.49474626 -2.18649613 14.1616074 -2.1953125 11.828125 C-2.20563507 11.10506165 -2.21595764 10.38199829 -2.22659302 9.63702393 C-2.22741782 5.92201961 -2.06235471 3.15418955 0 0 Z " fill="#B3C4DD" transform="translate(224,214)"/>
<path d="M0 0 C1.33333333 0 2.66666667 0 4 0 C4.05402274 2.10388569 4.09280256 4.20816714 4.125 6.3125 C4.14820313 7.48425781 4.17140625 8.65601563 4.1953125 9.86328125 C4 13 4 13 2 16 C0.02 11.71 -1.96 7.42 -4 3 C-3.01 2.34 -2.02 1.68 -1 1 C-0.67 0.67 -0.34 0.34 0 0 Z " fill="#E5EBF3" transform="translate(151,196)"/>
<path d="M0 0 C0.33 0 0.66 0 1 0 C1.02578125 0.90621094 1.0515625 1.81242187 1.078125 2.74609375 C1.39766737 9.60899241 1.92846366 15.20976038 5.16015625 21.328125 C6 23 6 23 6 25 C6.66 25 7.32 25 8 25 C8.28875 25.639375 8.5775 26.27875 8.875 26.9375 C9.82823451 29.15206079 9.82823451 29.15206079 12 30 C12 30.66 12 31.32 12 32 C12.639375 32.28875 13.27875 32.5775 13.9375 32.875 C16 34 16 34 17 36 C8.98230364 32.60789769 4.78073261 26.57378032 1 19 C-0.3850201 15.19526831 -0.11159371 11.24547283 -0.0625 7.25 C-0.05798828 6.55261719 -0.05347656 5.85523438 -0.04882812 5.13671875 C-0.0371002 3.42444197 -0.01916653 1.71220967 0 0 Z " fill="#2390A4" transform="translate(225,294)"/>
<path d="M0 0 C0.33 0 0.66 0 1 0 C1.33 9.9 1.66 19.8 2 30 C2.66 30.33 3.32 30.66 4 31 C4 30.34 4 29.68 4 29 C4.66 29.33 5.32 29.66 6 30 C4.35 33.3 2.7 36.6 1 40 C0.67 40 0.34 40 0 40 C0 26.8 0 13.6 0 0 Z " fill="#DDEAFB" transform="translate(350,172)"/>
<path d="M0 0 C2.33944736 0.28730055 4.6739143 0.61936779 7 1 C7 3.31 7 5.62 7 8 C4.69 8 2.38 8 0 8 C-0.38063221 5.6739143 -0.71269945 3.33944736 -1 1 C-0.67 0.67 -0.34 0.34 0 0 Z " fill="#EAF2F3" transform="translate(254,298)"/>
<path d="M0 0 C2.875 -0.125 2.875 -0.125 6 0 C8 2 8 2 8.125 5.125 C8.08375 6.07375 8.0425 7.0225 8 8 C6.1875 8.6875 6.1875 8.6875 4 9 C2.3125 7.9375 2.3125 7.9375 1 6 C0.3125 2.8125 0.3125 2.8125 0 0 Z " fill="#E9F2F3" transform="translate(321,298)"/>
<path d="M0 0 C3.39256431 1.13085477 4.51229261 2.32332629 6.20703125 5.43359375 C7.30325409 8.98146766 7.37041629 12.44428263 7.375 16.125 C7.37653076 16.81795166 7.37806152 17.51090332 7.37963867 18.22485352 C7.29395084 22.21101319 6.92137897 25.47962108 5 29 C4.01 29.66 3.02 30.32 2 31 C1.34 30.34 0.68 29.68 0 29 C0.3609375 28.55011719 0.721875 28.10023438 1.09375 27.63671875 C4.62907547 22.73636484 5.76123671 18.87197482 5.5078125 12.83203125 C4.65337571 8.06690301 2.49364249 4.10560425 0 0 Z " fill="#CBF1F7" transform="translate(418,297)"/>
<path d="M0 0 C2.5 0.25 2.5 0.25 4.5 2.25 C4.625 4.875 4.625 4.875 4.5 7.25 C3.84 6.26 3.18 5.27 2.5 4.25 C1.18 4.25 -0.14 4.25 -1.5 4.25 C-2.67469444 6.59938888 -2.70034889 8.20073205 -2.81640625 10.8203125 C-2.85830078 11.71621094 -2.90019531 12.61210937 -2.94335938 13.53515625 C-2.98267578 14.47230469 -3.02199219 15.40945312 -3.0625 16.375 C-3.10568359 17.31988281 -3.14886719 18.26476562 -3.19335938 19.23828125 C-3.29959072 21.57537092 -3.40163176 23.9125683 -3.5 26.25 C-3.83 26.25 -4.16 26.25 -4.5 26.25 C-4.55785647 22.29172765 -4.59354717 18.3335633 -4.625 14.375 C-4.64175781 13.24707031 -4.65851563 12.11914062 -4.67578125 10.95703125 C-4.68222656 9.88066406 -4.68867188 8.80429688 -4.6953125 7.6953125 C-4.70578613 6.70031738 -4.71625977 5.70532227 -4.72705078 4.68017578 C-4.40354287 1.21759756 -3.44356702 0.3443567 0 0 Z " fill="#E3F0FB" transform="translate(189.5,214.75)"/>
<path d="M0 0 C0.66 0.33 1.32 0.66 2 1 C2.252443 5.54397394 2.252443 5.54397394 1.03125 7.75 C-0.34863901 10.76066694 -0.42728398 13.454733 -0.625 16.75 C-0.69976562 17.92046875 -0.77453125 19.0909375 -0.8515625 20.296875 C-0.90054688 21.18890625 -0.94953125 22.0809375 -1 23 C-3.72985825 20.27014175 -3.29924369 18.68397852 -3.3125 14.875 C-3.24320481 9.19909395 -2.40520369 5.11105784 0 0 Z " fill="#30517B" transform="translate(90,205)"/>
<path d="M0 0 C1.47906892 -0.02689216 2.95827483 -0.04634621 4.4375 -0.0625 C5.26121094 -0.07410156 6.08492188 -0.08570313 6.93359375 -0.09765625 C9 0 9 0 10 1 C13 1.16666667 13 1.16666667 16 1 C16.33 0.67 16.66 0.34 17 0 C19.67058851 -0.14115161 22.32432238 -0.04247107 25 0 C24 2 24 2 22.40234375 2.61328125 C19.1064039 3.14384718 15.90007482 3.17096098 12.5625 3.1875 C11.26441406 3.20167969 9.96632813 3.21585937 8.62890625 3.23046875 C5.24527201 3.01557702 3.01894337 2.47166218 0 1 C0 0.67 0 0.34 0 0 Z " fill="#2997A9" transform="translate(312,333)"/>
<path d="M0 0 C0.99 0.33 1.98 0.66 3 1 C3 1.66 3 2.32 3 3 C4.65 3 6.3 3 8 3 C8.103125 3.639375 8.20625 4.27875 8.3125 4.9375 C8.6528125 5.9584375 8.6528125 5.9584375 9 7 C9.99 7.33 10.98 7.66 12 8 C12 8.66 12 9.32 12 10 C14.31 10 16.62 10 19 10 C18.67 10.99 18.34 11.98 18 13 C11.45936938 11.74753882 6.78235994 8.61677925 2 4 C0.73828125 1.7734375 0.73828125 1.7734375 0 0 Z " fill="#2C4E79" transform="translate(94,240)"/>
<path d="M0 0 C0.33 0 0.66 0 1 0 C1.03738281 0.845625 1.07476562 1.69125 1.11328125 2.5625 C1.50518504 10.23813591 1.50518504 10.23813591 3.625 17.5625 C5.03067444 21.07668609 5.09888231 21.65207189 4 25 C4 24.34 4 23.68 4 23 C3.01 23 2.02 23 1 23 C0.67 23.66 0.34 24.32 0 25 C0 16.75 0 8.5 0 0 Z " fill="#B7E6ED" transform="translate(224,296)"/>
<path d="M0 0 C1.65 0 3.3 0 5 0 C4.50959229 0.55413574 4.01918457 1.10827148 3.51391602 1.67919922 C1.70436912 4.4531958 1.67240778 5.85631325 1.77734375 9.1328125 C1.79603516 10.10347656 1.81472656 11.07414063 1.83398438 12.07421875 C1.86814453 13.08097656 1.90230469 14.08773437 1.9375 15.125 C1.99729079 17.12735542 2.04850722 19.12999112 2.08984375 21.1328125 C2.11941162 22.01855957 2.14897949 22.90430664 2.17944336 23.81689453 C2 26 2 26 0 28 C0 18.76 0 9.52 0 0 Z " fill="#1C3E6C" transform="translate(157,173)"/>
<path d="M0 0 C1.32 0 2.64 0 4 0 C4 8.91 4 17.82 4 27 C2.35 27 0.7 27 -1 27 C0.32 26.67 1.64 26.34 3 26 C2.67 18.08 2.34 10.16 2 2 C1.34 2 0.68 2 0 2 C0 1.34 0 0.68 0 0 Z " fill="#1E3E69" transform="translate(257,225)"/>
<path d="M0 0 C7.26 0 14.52 0 22 0 C22.66 1.65 23.32 3.3 24 5 C23.52046875 4.51917969 23.0409375 4.03835938 22.546875 3.54296875 C18.8724167 1.31687822 15.4733624 1.43506856 11.25 1.3125 C10.06083984 1.26125977 10.06083984 1.26125977 8.84765625 1.20898438 C6.89892496 1.12680896 4.94948638 1.06171955 3 1 C2.67 2.98 2.34 4.96 2 7 C1.67 7 1.34 7 1 7 C0.67 4.69 0.34 2.38 0 0 Z " fill="#2894AA" transform="translate(397,298)"/>
<path d="M0 0 C1.37562854 1.28965176 2.70766393 2.62689293 4 4 C4 4.66 4 5.32 4 6 C-5.57 6 -15.14 6 -25 6 C-24.67 5.34 -24.34 4.68 -24 4 C-15.75 4.33 -7.5 4.66 1 5 C0.67 3.35 0.34 1.7 0 0 Z " fill="#24426B" transform="translate(390,246)"/>
<path d="M0 0 C5.80178858 3.8006754 10.02040447 7.63970954 13 14 C13 14.66 13 15.32 13 16 C10 15 10 15 9.0078125 13.22265625 C8.71648437 12.50980469 8.42515625 11.79695312 8.125 11.0625 C6.60893649 7.60806815 6.60893649 7.60806815 3.3125 5.8125 C2.1678125 5.4103125 2.1678125 5.4103125 1 5 C0.1875 2.375 0.1875 2.375 0 0 Z " fill="#2F4D7B" transform="translate(274,191)"/>
<path d="M0 0 C4.15007748 3.577653 6.72495164 7.65845504 7.18359375 13.23046875 C7.18699932 15.15461627 7.10113111 17.07850897 7 19 C6.67 19 6.34 19 6 19 C5.67 16.03 5.34 13.06 5 10 C4.01 10.33 3.02 10.66 2 11 C1.34 7.37 0.68 3.74 0 0 Z " fill="#2794A6" transform="translate(282,282)"/>
<path d="M0 0 C0.33 0 0.66 0 1 0 C1.3690205 9.41002278 1.3690205 9.41002278 -1 14 C-2.5625 12.8125 -2.5625 12.8125 -4 11 C-3.77690773 6.872793 -1.9249266 3.59877582 0 0 Z " fill="#DDE7F1" transform="translate(379,211)"/>
<path d="M0 0 C0.33 0 0.66 0 1 0 C1 7.92 1 15.84 1 24 C0.67 24 0.34 24 0 24 C0 18.06 0 12.12 0 6 C-0.66 6 -1.32 6 -2 6 C-2 6.66 -2 7.32 -2 8 C-2.66 7.67 -3.32 7.34 -4 7 C-2.68 4.69 -1.36 2.38 0 0 Z " fill="#D3F7FC" transform="translate(359,310)"/>
<path d="M0 0 C0.33 0 0.66 0 1 0 C1.64897681 7.84540858 0.98643115 12.78476975 -4 19 C-4.33 18.34 -4.66 17.68 -5 17 C-4.01 15.515 -4.01 15.515 -3 14 C-2.39578508 11.61917147 -1.8609677 9.22024906 -1.375 6.8125 C-1.11460937 5.54019531 -0.85421875 4.26789063 -0.5859375 2.95703125 C-0.39257812 1.98121094 -0.19921875 1.00539063 0 0 Z " fill="#2B95A9" transform="translate(423,307)"/>
<path d="M0 0 C0 2.71929057 -0.05620165 4.4832044 -1 7 C-4.32142857 10 -4.32142857 10 -7 10 C-7.33 10.99 -7.66 11.98 -8 13 C-8 8.43957226 -7.52301456 7.98745827 -4.5625 4.8125 C-3.60537109 3.77029297 -3.60537109 3.77029297 -2.62890625 2.70703125 C-1.76055558 1.79703306 -0.88941823 0.88941823 0 0 Z " fill="#234675" transform="translate(237,193)"/>
<path d="M0 0 C0 4.07746885 -1.52068051 5.83198065 -4 9 C-6.125 9.8125 -6.125 9.8125 -8 10 C-8.99 10.495 -8.99 10.495 -10 11 C-10.66 10.34 -11.32 9.68 -12 9 C-11.38511719 8.60167969 -10.77023438 8.20335937 -10.13671875 7.79296875 C-9.32847656 7.26316406 -8.52023438 6.73335937 -7.6875 6.1875 C-6.88699219 5.66542969 -6.08648437 5.14335937 -5.26171875 4.60546875 C-3.2762598 3.19610151 -1.6508148 1.77903343 0 0 Z " fill="#DCE7F3" transform="translate(146,242)"/>
<path d="M0 0 C-0.95545366 1.46022163 -1.91446678 2.91811468 -2.875 4.375 C-3.40867188 5.18710937 -3.94234375 5.99921875 -4.4921875 6.8359375 C-6 9 -6 9 -8 11 C-7.65370506 2.74086574 -7.65370506 2.74086574 -5.125 -0.125 C-3 -1 -3 -1 0 0 Z " fill="#C8F1F4" transform="translate(234,279)"/>
<path d="M0 0 C1.32 0.33 2.64 0.66 4 1 C4 4.63195496 3.04546845 5.74713911 1 8.6875 C0.443125 9.49574219 -0.11375 10.30398437 -0.6875 11.13671875 C-1.120625 11.75160156 -1.55375 12.36648437 -2 13 C-2.33 11.68 -2.66 10.36 -3 9 C-2.34 9 -1.68 9 -1 9 C-0.67 6.03 -0.34 3.06 0 0 Z " fill="#DEEAF3" transform="translate(92,194)"/>
<path d="M0 0 C1.98 0 3.96 0 6 0 C5.29445932 3.66881155 3.72264494 6.70450534 2 10 C1.67 10 1.34 10 1 10 C0.875 3.25 0.875 3.25 2 1 C1.34 0.67 0.68 0.34 0 0 Z " fill="#244672" transform="translate(385,189)"/>
<path d="M0 0 C0.33 0 0.66 0 1 0 C1.33 2.31 1.66 4.62 2 7 C3.11375 6.95875 4.2275 6.9175 5.375 6.875 C9 7 9 7 11 9 C7.37 9 3.74 9 0 9 C0 6.03 0 3.06 0 0 Z " fill="#E8F1FC" transform="translate(185,179)"/>
<path d="M0 0 C1.46573934 0.90477737 2.92235756 1.82434141 4.375 2.75 C5.18710937 3.26046875 5.99921875 3.7709375 6.8359375 4.296875 C9.08555679 6.0673335 9.95906848 7.36907419 11 10 C10.01 9.67 9.02 9.34 8 9 C8 8.34 8 7.68 8 7 C7.4225 6.9175 6.845 6.835 6.25 6.75 C3.3460664 5.78202213 1.96259396 4.31305716 0 2 C0 1.34 0 0.68 0 0 Z " fill="#2796A9" transform="translate(271,272)"/>
<path d="M0 0 C1.7015625 0.4640625 1.7015625 0.4640625 3.4375 0.9375 C7.92461414 2.06931233 12.39707347 2.59511294 17 3 C17 3.33 17 3.66 17 4 C14.72942623 4.05398987 12.45848712 4.09278742 10.1875 4.125 C8.29064453 4.15980469 8.29064453 4.15980469 6.35546875 4.1953125 C3 4 3 4 0 2 C0 1.34 0 0.68 0 0 Z " fill="#D4E3F3" transform="translate(106,251)"/>
<path d="M0 0 C0.8971875 0.309375 0.8971875 0.309375 1.8125 0.625 C1.26980469 1.02332031 0.72710937 1.42164063 0.16796875 1.83203125 C-0.90517578 2.62673828 -0.90517578 2.62673828 -2 3.4375 C-3.06154297 4.22060547 -3.06154297 4.22060547 -4.14453125 5.01953125 C-5.97281393 6.45628877 -7.58646688 7.94315763 -9.1875 9.625 C-8.58630773 6.25832327 -7.42363567 4.20515654 -5.1875 1.625 C-2.1875 -0.375 -2.1875 -0.375 0 0 Z " fill="#CAF3F8" transform="translate(372.1875,273.375)"/>
<path d="M0 0 C0.33 0.66 0.66 1.32 1 2 C1.99 2.33 2.98 2.66 4 3 C4 4.32 4 5.64 4 7 C5.98 7 7.96 7 10 7 C10 7.33 10 7.66 10 8 C6.6875 8.25 6.6875 8.25 3 8 C1.0625 6.25 1.0625 6.25 0 4 C0 2.68 0 1.36 0 0 Z " fill="#CCF5F8" transform="translate(386,300)"/>
<path d="M0 0 C1.875 0.625 1.875 0.625 4 2 C5.25 5.125 5.25 5.125 6 8 C5.01 8.495 5.01 8.495 4 9 C0 2.25 0 2.25 0 0 Z " fill="#DDE9F4" transform="translate(383,232)"/>
<path d="M0 0 C-1 2 -1 2 -2.625 2.625 C-5.7660575 3.12095645 -8.82601831 3.06103811 -12 3 C-8.2391768 -0.7608232 -5.0273023 -0.25136512 0 0 Z " fill="#2192A3" transform="translate(337,333)"/>
<path d="M0 0 C0.66 0 1.32 0 2 0 C2 3.3 2 6.6 2 10 C1.01 10 0.02 10 -1 10 C-0.67 6.7 -0.34 3.4 0 0 Z " fill="#D2E2F2" transform="translate(154,221)"/>
<path d="M0 0 C0 0.99 0 1.98 0 3 C0.66 3 1.32 3 2 3 C2 3.66 2 4.32 2 5 C-1.3 4.01 -4.6 3.02 -8 2 C-4 0 -4 0 0 0 Z " fill="#D4F6FA" transform="translate(340,268)"/>
<path d="M0 0 C0.7425 0.185625 1.485 0.37125 2.25 0.5625 C4.94990963 0.99203108 6.44631077 0.85122974 9 0 C8.01 1.98 7.02 3.96 6 6 C3.97945196 4.35830472 1.97956942 2.69088222 0 1 C0 0.67 0 0.34 0 0 Z " fill="#D6E0EB" transform="translate(141,193)"/>
<path d="M0 0 C0 0.99 0 1.98 0 3 C-0.66 3 -1.32 3 -2 3 C-1.67 3.99 -1.34 4.98 -1 6 C-3.31 6.66 -5.62 7.32 -8 8 C-3.375 2.25 -3.375 2.25 0 0 Z " fill="#2D4E78" transform="translate(103,191)"/>
<path d="M0 0 C1.32 0.33 2.64 0.66 4 1 C4.33 2.32 4.66 3.64 5 5 C3.35 5.33 1.7 5.66 0 6 C0 4.02 0 2.04 0 0 Z " fill="#D6F4F5" transform="translate(360,302)"/>
<path d="M0 0 C2.52588702 2.36292656 3.88820837 3.66462511 5 7 C3.68 7 2.36 7 1 7 C0.67 4.69 0.34 2.38 0 0 Z " fill="#224775" transform="translate(146,199)"/>
<path d="M0 0 C4.43458973 1.3937282 6.87378374 3.60582235 10 7 C5.04303419 5.76075855 2.88341534 4.21422242 0 0 Z " fill="#2992A6" transform="translate(302,326)"/>
<path d="M0 0 C0.66 0 1.32 0 2 0 C2.309375 0.94875 2.61875 1.8975 2.9375 2.875 C3.87394742 5.86080408 3.87394742 5.86080408 5 8 C3.68 8 2.36 8 1 8 C0.67 5.36 0.34 2.72 0 0 Z " fill="#204172" transform="translate(113,218)"/>
<path d="M0 0 C5 2 5 2 10 4 C6.59068103 5.13643966 5.99664544 4.86747764 2.8125 3.5625 C2.09707031 3.27503906 1.38164062 2.98757812 0.64453125 2.69140625 C0.10183594 2.46324219 -0.44085938 2.23507813 -1 2 C-0.67 1.34 -0.34 0.68 0 0 Z " fill="#DAE5F2" transform="translate(239,247)"/>
<path d="M0 0 C0.99 0.33 1.98 0.66 3 1 C3.33 2.65 3.66 4.3 4 6 C2.68 6 1.36 6 0 6 C0 4.02 0 2.04 0 0 Z " fill="#EEEEF1" transform="translate(122,217)"/>
<path d="M0 0 C5.57142857 5.14285714 5.57142857 5.14285714 6 9 C3 8 3 8 1.3125 5.0625 C0 2 0 2 0 0 Z " fill="#25456E" transform="translate(281,198)"/>
<path d="M0 0 C0.66 0.33 1.32 0.66 2 1 C1.25 3.375 1.25 3.375 0 6 C-1.98 6.99 -1.98 6.99 -4 8 C-2.68 5.36 -1.36 2.72 0 0 Z " fill="#2A4B79" transform="translate(357,199)"/>
<path d="M0 0 C0.99 0.33 1.98 0.66 3 1 C-1.75 5 -1.75 5 -4 5 C-2.25 1.125 -2.25 1.125 0 0 Z " fill="#2090A7" transform="translate(415,326)"/>
<path d="M0 0 C0.99 0.33 1.98 0.66 3 1 C2.67 2.65 2.34 4.3 2 6 C1.34 6 0.68 6 0 6 C-0.38218767 4.34385343 -0.71395102 2.67542976 -1 1 C-0.67 0.67 -0.34 0.34 0 0 Z " fill="#1294A7" transform="translate(348,320)"/>
<path d="M0 0 C0.99 0 1.98 0 3 0 C3 0.66 3 1.32 3 2 C3.99 2.33 4.98 2.66 6 3 C5.67 3.66 5.34 4.32 5 5 C2.69 4.34 0.38 3.68 -2 3 C-1.34 2.01 -0.68 1.02 0 0 Z " fill="#284772" transform="translate(188,212)"/>
</svg>
